<svg xmlns="http://www.w3.org/2000/svg" width="104" height="27" fill="none" viewBox="0 0 104 27"><path fill="#f9fafb" d="M39.208 19.941c-.023-.5-.047-.966-.047-1.42v-5.81c0-.729-.105-1.409-.328-2.053a4.6 4.6 0 0 0-.995-1.659c-.445-.465-1.007-.835-1.697-1.11-.691-.274-1.5-.405-2.436-.405a8.2 8.2 0 0 0-2.985.537 7.1 7.1 0 0 0-2.236 1.348c-.07.06-.07.167-.012.239l1.159 1.42a.17.17 0 0 0 .246.012 5.3 5.3 0 0 1 1.51-.979 5.1 5.1 0 0 1 2.084-.43c.972 0 1.756.24 2.342.717.585.477.878 1.217.878 2.207v.191c0 .096-.07.167-.164.167-1.042 0-2.084.048-3.114.143q-1.634.144-2.916.609c-.866.31-1.557.752-2.096 1.348-.538.585-.796 1.385-.796 2.399q0 1.145.457 1.933c.304.525.679.943 1.147 1.265.457.322.972.549 1.534.692q.843.215 1.616.215c.995 0 1.85-.191 2.576-.585a5.03 5.03 0 0 0 1.803-1.659h.081c0 .597.06 1.181.188 1.778.012.084.082.131.164.131h1.99a.167.167 0 0 0 .164-.202 6.5 6.5 0 0 1-.117-1.039m-2.529-4.426q0 1.682-.983 2.792c-.656.74-1.581 1.11-2.799 1.11-.328 0-.655-.036-.96-.096a2.4 2.4 0 0 1-.854-.346 1.9 1.9 0 0 1-.62-.645c-.153-.262-.235-.584-.235-.978 0-.56.187-1.014.55-1.348s.832-.585 1.394-.752a8.6 8.6 0 0 1 1.873-.334c.69-.06 1.358-.084 2.002-.084h.468c.094 0 .176.072.176.18v.5zm-16.075-2.888c-2.33.573-5.491 1.014-9.881 1.014-4.485 0-7.552-.43-9.882-1.014-1.698-.418-1.686-8.794 8.43-9.534.585-.811.257-2.41-.106-2.864-.082-.095.012-.25.14-.227.2.024.399.084.598.168 1.557.668 2.318 2.53 2.494 2.947 9.893.835 9.893 9.092 8.207 9.51m-.398 2.207c.152 2.256-.012 9.284-8.079 10.87-.433.383-1.159 1.242-1.416 1.242-.258 0-.984-.86-1.417-1.241-8.125-1.42-8.242-8.592-8.078-10.87a.577.577 0 0 1 .69-.526c1.335.275 4.684.812 8.805.812s7.481-.537 8.816-.812a.56.56 0 0 1 .679.525m71.161-4.033a7.6 7.6 0 0 1 .293 2.1v8.09c0 .096-.07.18-.176.18h-2.248a.174.174 0 0 1-.175-.18v-7.207c0-.537-.047-1.062-.13-1.539a3.7 3.7 0 0 0-.456-1.289 2.55 2.55 0 0 0-.913-.895c-.386-.226-.878-.334-1.487-.334-1.03 0-1.873.394-2.517 1.194q-.984 1.199-.984 3.186v6.884c0 .096-.07.18-.175.18H80.15a.174.174 0 0 1-.176-.18V10.718c0-.358-.012-.812-.023-1.373a20 20 0 0 0-.07-1.3c-.012-.096.07-.191.163-.191h2.12c.081 0 .163.072.163.155.024.298.047.62.07.979.024.417.024.775.024 1.05h.082c.164-.358.386-.693.68-1.003a4.4 4.4 0 0 1 .983-.811 4.6 4.6 0 0 1 1.206-.549c.444-.131.901-.191 1.381-.191q1.265 0 2.178.43c.608.286 1.112.68 1.51 1.169a4.35 4.35 0 0 1 .925 1.718m12.516 6.432c0 .787-.152 1.456-.445 1.992-.293.537-.679.99-1.171 1.337a4.7 4.7 0 0 1-1.662.74 8 8 0 0 1-1.932.226c-.996 0-1.956-.19-2.904-.584-.89-.37-1.639-.931-2.248-1.659a.17.17 0 0 1 .024-.238l1.58-1.373a.18.18 0 0 1 .246.024c.34.465.785.847 1.347 1.17.62.358 1.287.537 2.025.537.328 0 .644-.036.948-.096.305-.06.574-.167.832-.322.245-.155.444-.346.597-.585s.222-.549.222-.93c0-.621-.293-1.075-.866-1.373-.574-.298-1.429-.585-2.553-.847-.445-.107-.89-.25-1.334-.406a4.7 4.7 0 0 1-1.23-.656 3.3 3.3 0 0 1-.89-1.05c-.234-.418-.339-.943-.339-1.563 0-.716.14-1.325.422-1.838.28-.513.655-.93 1.112-1.265a4.9 4.9 0 0 1 1.569-.727 6.926 6.926 0 0 1 4.531.322q1.229.519 1.931 1.503c.059.072.036.18-.023.239l-1.522 1.312a.17.17 0 0 1-.246-.035 3.4 3.4 0 0 0-1.136-1.038 3.5 3.5 0 0 0-1.79-.466c-.294 0-.586.036-.879.096-.293.071-.55.167-.784.31a1.7 1.7 0 0 0-.55.537c-.141.215-.211.477-.211.8 0 .56.245.978.749 1.252.492.275 1.24.525 2.236.74.621.155 1.206.322 1.733.537s.995.465 1.393.776c.398.31.703.68.925 1.11.187.405.293.906.293 1.49M77.985 7.747l-.094 2.088c0 .107-.094.179-.199.167a5.3 5.3 0 0 0-.995-.096c-.62 0-1.17.12-1.627.346a3.4 3.4 0 0 0-1.148.943 4.1 4.1 0 0 0-.679 1.36 5.6 5.6 0 0 0-.222 1.611v6.825c0 .096-.07.18-.176.18h-2.248a.174.174 0 0 1-.176-.18V10.718c0-.358-.011-.812-.023-1.373a20 20 0 0 0-.07-1.3c-.012-.096.07-.191.164-.191h2.119c.082 0 .164.072.164.155.023.298.046.632.07 1.014.023.442.023.8.023 1.086h.082a4.5 4.5 0 0 1 1.616-1.897 4.14 4.14 0 0 1 2.377-.716c.34 0 .632.024.878.083.117.012.175.084.164.168M53.164 19.333c.07.06.082.179.012.239a5.5 5.5 0 0 1-1.956 1.396c-.83.37-1.768.549-2.81.549-1.006 0-1.943-.168-2.798-.502a6.5 6.5 0 0 1-2.213-1.42 6.7 6.7 0 0 1-1.475-2.207c-.363-.86-.538-1.826-.538-2.888q0-1.575.526-2.863c.352-.86.832-1.6 1.464-2.22a6.4 6.4 0 0 1 2.213-1.432 7.5 7.5 0 0 1 2.763-.501c.913 0 1.826.191 2.74.56.854.347 1.533.848 2.06 1.492a.17.17 0 0 1-.023.24L51.525 11.1c-.07.06-.188.047-.234-.024-.27-.37-.656-.68-1.136-.943a3.76 3.76 0 0 0-1.768-.43c-.68 0-1.276.132-1.803.394a4 4 0 0 0-1.335 1.05 5 5 0 0 0-.843 1.528 6 6 0 0 0-.292 1.825c0 .633.093 1.241.292 1.826.188.585.469 1.086.843 1.527.363.442.82.788 1.347 1.05.527.263 1.135.394 1.814.394.656 0 1.265-.131 1.803-.394a3.8 3.8 0 0 0 1.23-.93.164.164 0 0 1 .234-.012zm12.925-9.88a6.7 6.7 0 0 0-2.247-1.444 7.4 7.4 0 0 0-2.787-.525c-.995 0-1.92.179-2.786.525a6.7 6.7 0 0 0-2.237 1.444 6.8 6.8 0 0 0-1.475 2.207c-.363.848-.538 1.79-.538 2.816 0 1.027.175 1.97.538 2.84.363.86.855 1.611 1.475 2.232.62.632 1.37 1.11 2.237 1.455a7.4 7.4 0 0 0 2.786.525c.995 0 1.92-.179 2.787-.525a6.75 6.75 0 0 0 2.247-1.455 6.9 6.9 0 0 0 1.487-2.232c.363-.859.539-1.801.539-2.84 0-1.026-.176-1.968-.539-2.816a6.8 6.8 0 0 0-1.487-2.207m-.971 6.861a5.1 5.1 0 0 1-.843 1.54c-.363.453-.82.799-1.37 1.061q-.824.394-1.862.394-1.053 0-1.861-.394a4.2 4.2 0 0 1-1.37-1.062 5.2 5.2 0 0 1-.843-1.539 5.5 5.5 0 0 1-.293-1.814c0-.632.094-1.24.293-1.813s.48-1.086.843-1.528.82-.787 1.37-1.05q.807-.394 1.861-.394t1.862.394c.538.263.995.609 1.37 1.05.363.442.644.943.843 1.527a5.9 5.9 0 0 1 .292 1.814 5.5 5.5 0 0 1-.292 1.814"/></svg>