<svg xmlns="http://www.w3.org/2000/svg" width="74" height="21" fill="none" viewBox="0 0 74 21"><path fill="#f9fafb" d="M49.09 6.083c-1.29 0-2.834.455-4.311 2.039-1.478-1.584-3.032-2.04-4.312-2.04 0 0-4.935-.368-4.935 5.347v9.25h3.578v-8.73c0-2.559 1.73-2.613 2.068-2.537 0 0 .624.033 1.193.618 0 0-1.138 1.475-1.225 3.33 0 0-.252 4.803 3.633 4.803s3.633-4.804 3.633-4.804c-.088-1.854-1.226-3.329-1.226-3.329.57-.585 1.193-.618 1.193-.618.328-.076 2.068-.022 2.068 2.538v8.729h3.579v-9.25c-.011-5.715-4.936-5.346-4.936-5.346m-4.322 9.478c-.766 0-1.018-.955-1.029-1.866-.022-1.583 1.018-2.721 1.029-2.743.022.022 1.05 1.16 1.029 2.743 0 .911-.263 1.866-1.03 1.866M33.518 6.322H29.94v14.369h3.578zM31.735.098c-1.193 0-2.179.954-2.179 2.126 0 1.183.975 2.159 2.18 2.159a2.154 2.154 0 0 0 2.145-2.159c0-1.15-.974-2.126-2.146-2.126M18.614 7.287V0h-3.546v20.69h3.546V10.335c5.877-2.83 5.658 1.649 5.658 1.649v8.708h3.556v-8.708c-.01-8.415-7.43-5.64-9.214-4.696M58.94 14.204c1.904.662 4.322.608 4.322.608 5.735-.033 5.57-4.164 5.57-4.164-.142-4.653-5.657-4.566-5.657-4.566-4.563 0-7.759 3.102-7.759 7.537s3.13 7.298 7.967 7.298c2.057 0 4.016-.564 5.384-1.55V15.95c-1.434 1.226-3.152 1.876-4.968 1.876.01 0-4.958.25-4.86-3.622m.438-3.025c.601-1.507 1.849-2.3 3.622-2.3 1.455 0 2.298.608 2.298 1.573 0 1.356-1.543 1.475-2.988 1.475-1.422 0-2.298-.152-2.692-.25l-.383-.086zM7.726 20.917c2.517 0 4.3-.944 5.362-1.735v-3.438c-1.565 1.226-3.403 1.93-5.034 1.93-2.604 0-4.432-1.778-4.432-4.337 0-2.43 1.664-4.121 4.038-4.121.777 0 1.445.195 2.156.39.733.206 1.5.434 2.408.434q.427 0 .853-.065V6.7c-.24.022-.47.044-.711.044-.82 0-1.565-.152-2.342-.315-.82-.173-1.663-.347-2.66-.347-1.98 0-3.818.694-5.164 1.974C.766 9.41 0 11.298 0 13.499c0 4.37 3.174 7.418 7.726 7.418M73.047 7.841q0-.321-.105-.591a1.4 1.4 0 0 0-.29-.464 1.3 1.3 0 0 0-.435-.298 1.3 1.3 0 0 0-.535-.108 1.36 1.36 0 0 0-.978.406q-.186.194-.291.464t-.105.591q0 .303.095.568t.272.463q.181.199.435.317.253.114.572.114.287 0 .535-.104.248-.11.434-.303.187-.194.291-.459.105-.27.105-.596m.382 0q0 .397-.143.724-.138.325-.382.558-.239.231-.558.36a1.8 1.8 0 0 1-.664.127q-.386 0-.71-.132a1.7 1.7 0 0 1-.554-.374 1.8 1.8 0 0 1-.363-.558 1.9 1.9 0 0 1-.13-.705q0-.397.14-.723.142-.327.381-.559.243-.231.563-.359a1.8 1.8 0 0 1 1.895.36q.244.231.382.558.144.325.143.723m-1.737-.1q.09.001.172-.004a.4.4 0 0 0 .148-.042.3.3 0 0 0 .1-.09.3.3 0 0 0 .038-.17.22.22 0 0 0-.043-.142.25.25 0 0 0-.1-.08.4.4 0 0 0-.139-.034q-.076-.01-.147-.01h-.392v.573zm-.363 1.112h-.324V6.895h.749q.358 0 .54.133.18.132.18.43 0 .265-.147.388a.67.67 0 0 1-.368.147l.554.86h-.368l-.51-.837h-.306z"/><path fill="#f9fafb" fill-rule="evenodd" d="M72.204 6.52a1.3 1.3 0 0 0-.521-.106q-.285 0-.531.106a1.25 1.25 0 0 0-.424.29 1.4 1.4 0 0 0-.284.453 1.6 1.6 0 0 0-.103.58q0 .297.094.556.093.26.265.453.177.193.424.309.245.11.559.11.28 0 .521-.101.243-.106.424-.295.181-.19.284-.448.103-.263.103-.585 0-.315-.103-.579a1.4 1.4 0 0 0-.284-.453 1.25 1.25 0 0 0-.424-.29m.013 2.68q-.248.104-.534.104-.32 0-.573-.114a1.4 1.4 0 0 1-.434-.316 1.4 1.4 0 0 1-.272-.464 1.7 1.7 0 0 1-.096-.568q0-.321.105-.59.105-.27.291-.464.187-.195.435-.298.252-.11.544-.109.286 0 .534.109.248.104.435.298.185.194.29.463.105.27.106.591 0 .327-.105.596a1.4 1.4 0 0 1-.291.46q-.187.193-.435.302m-1.258.309a1.8 1.8 0 0 1-.565-.38v-.001a1.8 1.8 0 0 1-.37-.568v-.001a1.9 1.9 0 0 1-.13-.717q0-.402.14-.736.146-.331.39-.569.248-.236.573-.366a1.83 1.83 0 0 1 1.362 0 1.73 1.73 0 0 1 .958.935q.146.333.146.736 0 .404-.146.737a1.728 1.728 0 0 1-.958.935q-.322.13-.676.13-.393 0-.724-.135m1.387-.025a1.7 1.7 0 0 0 .94-.918q.144-.326.144-.724t-.144-.723a1.694 1.694 0 0 0-.94-.918 1.799 1.799 0 0 0-1.9.36q-.239.231-.381.558a1.8 1.8 0 0 0-.139.723q0 .38.13.705.133.322.362.558.234.236.554.374.324.132.71.132.35 0 .664-.127m-.264-2.17-.001-.001a.2.2 0 0 0-.088-.07.4.4 0 0 0-.126-.03h-.002a1 1 0 0 0-.144-.01h-.359v.508h.33q.09 0 .17-.005a.4.4 0 0 0 .134-.039.24.24 0 0 0 .089-.079.3.3 0 0 0 .033-.152.2.2 0 0 0-.036-.122m.03.292a.3.3 0 0 1-.1.09.4.4 0 0 1-.148.042 3 3 0 0 1-.172.005h-.362v-.572h.39q.073 0 .149.01.076.003.138.032a.25.25 0 0 1 .1.08.22.22 0 0 1 .043.143q0 .108-.038.17m-.75 1.281h-.39V6.864h.782q.364-.001.56.139c.131.096.194.251.194.456q.002.276-.16.413a.7.7 0 0 1-.333.147l.558.868h-.446l-.51-.837h-.255zm-.032-.87h.305l.51.838h.368l-.553-.861.036-.005a.66.66 0 0 0 .331-.142q.148-.123.148-.388 0-.298-.181-.43t-.54-.132h-.749v1.958h.325z" clip-rule="evenodd"/></svg>